<?xml version="1.0" encoding="utf-8"?>
<!-- Generator: Adobe Illustrator 18.1.1, SVG Export Plug-In . SVG Version: 6.00 Build 0)  -->
<!DOCTYPE svg PUBLIC "-//W3C//DTD SVG 1.1//EN" "http://www.w3.org/Graphics/SVG/1.1/DTD/svg11.dtd">
<svg version="1.1" id="Calque_1" xmlns="http://www.w3.org/2000/svg" xmlns:xlink="http://www.w3.org/1999/xlink" x="0px" y="0px"
	 viewBox="0 0 264 281" enable-background="new 0 0 264 281" xml:space="preserve">
<path fill="#8F8F93" d="M213.2,224.3c-0.9-1.1-1.9-2.2-2.9-3.3c-0.4-0.4-0.7-0.8-1-1.2c-0.3-0.4-0.5-0.9-0.7-1.4
	c-0.6-1.4-1.2-2.8-1.9-4.2c-0.4-0.9-0.8-1.9-1.1-2.9c-0.4-1.7-0.2-3.9,1.5-4.8c1-0.5,2.1-0.6,3.3-0.6c11.2-0.4,22.7,1.2,33.5-2
	c3.8-1.1,7.8-3.1,9.4-6.7c1.3-2.9,0.9-6.4-0.2-9.5c-0.8-2.2-2-4.4-4-5.7c-1.7-1.1-3.8-1.4-5.8-1.2c-2,0.2-3.9,0.9-5.8,1.7
	c-5.1,2.3-9.8,5.5-14.3,8.8c-2.6,1.9-5.3,3.9-8.5,3.9c-0.3-1.6,0.1-3,0.3-4.6c0.2-1.7,0.3-3.4,0.5-5.2c0.5-3.4,1.2-6.8,2.3-10.1
	c1.7-5.6,2.9-10.7,4.2-16.4c7.3-33,8-68.7-7.4-99.6c-11.2-22.5-31.4-41.1-55.8-47.1c-22-5.4-45.2-0.5-67.2,4.7
	c-16.1,3.8-32.8,8-45.6,18.5C36.9,43,30.2,53.2,25.6,64c-14.1,33.3-7.9,68.7,5.9,101c4.1,9.5,8.7,18.8,13.6,27.9
	c2.4,4.5,5.1,8.8,7.3,13.4c1.9,4,3.5,7.5,7.5,10c-4.8,2.8-9.3,6.3-13.3,10.2c-4.3,4.3-8.1,9.5-8.8,15.6c-0.7,6,2.7,12.8,8.5,14.4
	c0.9,0.2,1.8,0.3,2.7,0.3c7.7,0,12.6-6.4,16.4-12.3c1.8-2.8,2.5-5.8,4.1-8.6c1.9-3.4,5.5-6.3,8.6-8.6c0.4-0.3,0.8-0.6,1.2-0.6
	c0.8,0,1.5,0.8,1.8,1.5c2.9,7.3-6.1,15-7.1,22.1c-0.1,0.4-0.1,0.8-0.1,1.2c-0.3,4.4,1.1,9.1,4.5,11.9c1.9,1.6,4.3,2.6,6.7,3.2
	c3.4,1,7.3,1.3,10.2-0.8c3.1-2.3,3.7-6.7,4-10.5c0.5-6.4,1-12.8,1.6-19.2c0.1-1.7,0.3-3.5,1-5.1s2.2-3,3.9-3.1
	c1.7,1.9,1.8,4.7,1.8,7.2c0.2,8.9-1.2,21.8,8.2,26.8c2.8,1.5,6.1,2,9.3,2.2c4.7,0.3,12.9-0.3,13.7-6.4c0.9-6.5,1-14,0.6-20.6
	c-0.1-2.4-0.4-4.7,0.1-7.1c0.5-2.3,1.8-4.6,3.9-5.6c3.2,7.7,3.1,16.3,5.4,24.3c0.9,3.3,2.4,6.6,5.2,8.6c4,2.9,9.5,2.3,14.1,0.6
	c3.5-1.3,6.8-3.1,9.4-5.8s4.4-6.2,4.4-9.9c0.1-5-2.7-9.2-5.1-13.4c-1.7-2.9-6.3-7-4.2-10.5c0.9-1.6,2.9-2.5,4.7-2.1
	c2.4,0.5,4,2.8,5.2,5c2,3.3,3.9,6.6,5.9,9.9c2.3,3.9,4.7,7.9,8,11c3.3,3.1,7.6,5.4,12.2,5.2c4.5-0.2,9-3.4,9.8-7.9
	c0.4-2.1-0.1-4.3-0.7-6.3C216.6,229.5,215.6,227.1,213.2,224.3z"/>
<path fill="#838389" d="M135,256.7c-0.2-0.1-0.5-0.2-0.8-0.3c-2.1-0.6-4.3-0.2-6.4-0.9c-2.3-0.8-4-2.7-5.2-4.9
	c-3.9-7-3.2-15.6-5.3-23.4c-0.3-1.2-0.7-2.4-1.6-3.2c-0.9-0.9-2.2-1.3-3.5-1.7c-5.9-1.8-10.7-3.2-16.1-6.3
	c-5.3-3.1-10.4-6.7-15.1-10.6c-9.4-7.7-17.6-16.7-24.3-26.7c-13.5-20.2-20.6-44.8-19.1-69c0.4-6.7,1.5-13.3,3.5-19.7
	c2.8-8.7,7.4-16.7,13-23.8c8.1-10.3,18.3-19,29.8-25.3c14.5-7.9,30.9-11.7,46.8-16.1c4.5-1.2,9-3.1,13.1-5.4
	c1.9-1.1,10.8-8.4,3.1-8.7c-18.8-0.7-36.9,2.1-55.1,6.4c-16.1,3.8-32.8,8-45.6,18.5C36.9,43,30.2,53.2,25.6,64
	c-14.1,33.3-7.9,68.7,5.9,101c4.1,9.5,8.7,18.8,13.6,27.9c2.4,4.5,5.1,8.8,7.3,13.4c1.9,4,3.5,7.5,7.5,10
	c-4.8,2.8-9.3,6.3-13.3,10.2c-4.3,4.3-8.1,9.5-8.8,15.6c-0.7,6,2.7,12.8,8.5,14.4c0.9,0.2,1.8,0.3,2.7,0.3c7.7,0,12.6-6.4,16.4-12.3
	c1.8-2.8,2.5-5.8,4.1-8.6c1.9-3.4,5.5-6.3,8.6-8.6c0.4-0.3,0.8-0.6,1.2-0.6c0.8,0,1.5,0.8,1.8,1.5c2.9,7.3-6.1,15-7.1,22.1
	c-0.1,0.4-0.1,0.8-0.1,1.2c-0.3,4.4,1.1,9.1,4.5,11.9c1.9,1.6,4.3,2.6,6.7,3.2c3.4,1,7.3,1.3,10.2-0.8c3.1-2.3,3.7-6.7,4-10.5
	c0.5-6.4,1-12.8,1.6-19.2c0.1-1.7,0.3-3.5,1-5.1s2.2-3,3.9-3.1c1.7,1.9,1.8,4.7,1.8,7.2c0.2,8.9-1.2,21.8,8.2,26.8
	c2.8,1.5,6.1,2,9.3,2.2c3.2,0.2,6.6,0.3,9.5-1.2C137.3,261.4,138.5,258.1,135,256.7z"/>
<path fill="#FFFFFF" d="M103.1,148.5c6.7-6.4,11-14.9,13.1-26.1c0.3-1.4,0.5-2.7,0.7-4.1c0.3-1.9,0.6-3.8,1-5.6
	c0.3-1.7,1.5-2.8,3.3-3.1c0.5-0.1,0.9-0.1,1.4-0.2c0.8-0.1,1.6-0.2,2.4-0.3c1.8-0.4,3.3,0.2,4.4,1.5c1.4,1.7,2.4,3.2,3.3,4.7
	c0.8,1.5,1.6,3,2.4,4.5c1.1,2.2,2.3,4.5,3.6,6.6c5.7,9.1,13.1,14.3,22.4,16c7.7,1.4,15.2,0.9,22.2-1.5c12.1-4.2,19.1-12.3,20.8-24.1
	c0.4-3.1,0.8-6.2,1.2-9.3c0.3-2.5,0.6-4.9,0.9-7.4c0.4-3.3,1.7-5.7,3.9-7.5c0.6-0.5,0.8-1.2,0.7-2.3l-1-6.6
	c-0.2-1.7-0.9-2.3-2.5-2.4c-0.8-0.1-1.6-0.1-2.4-0.2c-1.2-0.1-2.4-0.1-3.7-0.3c-7.4-1.1-15.3-1.5-24.2-1l-0.5,0
	c-7.4,0.5-14.5,2.6-20.5,4.5l-6.5,2.2c-6.9,2.3-14.1,4.7-21.2,6.9c-6.3,1.9-13.2,2.7-20.4,2.2C97.2,95,85,94.3,73.2,95.2
	c-6.6,0.5-12.5,1.6-17.8,3.4c-4.1,1.4-8.3,2.9-12.3,4.4l-3.3,1.2c-2,0.7-3.9,1.4-5.9,2.2l-2.2,0.8l1.1,7.8c0.7,1.7,1.8,3.1,3.2,4.2
	l0.3,0.2c0.8,0.6,1.6,1.2,2.2,1.9L39,122c1,1.2,2.1,2.5,2.7,4c3.5,8.5,7.2,15.6,11.3,21.7c1.1,1.7,2.7,3.3,4.7,4.8
	c3.5,2.6,7.7,3.5,11.5,4.1c6,0.9,12.2,0.6,19.3-1C95.1,154.1,99.6,151.9,103.1,148.5z M140.2,94.8c4.4-3.2,9.6-5.6,16-7.3
	c2.2-0.6,4.5-1.1,6.7-1.5c1-0.2,2-0.4,3-0.6l0.1,0l1.3-0.1l3.6-0.2c5.1-0.3,10.5-0.6,15.9,0.1c2.4,0.3,5.1,1.1,7.9,2.3
	c2.8,1.3,4.6,3.8,5.3,7.5c1.1,5.4,1.2,11.1,0.4,17.6c-0.3,2.2-0.7,5.1-1.3,7.9c-1.7,8-6.5,13.4-14.2,16.1c-4.7,1.7-9,2.6-13.2,2.9
	l0,0c-2.4,0.1-4.7,0.1-7-0.2c-7.8-1-14.3-4.6-19.2-10.5c-4.5-5.5-8-11.3-10.2-17.3C132.7,104.5,134.3,99.1,140.2,94.8z M78.8,153.1
	c-3.1,0.2-6.4,0-9.7-0.5c-6.8-1-12-5-15.5-11.8c-3.9-7.5-6.1-13.6-7.1-19.7c-0.3-1.7-0.6-3.7-0.5-5.6c0.1-4.2,2.5-7.5,6.7-9.6
	c3.2-1.6,6.7-2.9,10.6-4.1c3-0.9,6-1.6,8.7-2.2c1.1-0.2,2.1-0.5,3-0.7c3-0.5,5.7-0.8,8.3-1c7-0.4,13.3,0.2,19.2,2.1
	c4.8,1.5,7.8,4,9.2,7.8c0.9,2.5,1.2,5.4,0.8,8.8c-0.8,6.1-2.3,12-4.6,17.5c-3.3,7.8-9,13.3-17,16.4C87.1,151.9,83,152.8,78.8,153.1
	L78.8,153.1z"/>
<circle fill="#FFFFFF" cx="88" cy="128" r="7"/>
<circle fill="#FFFFFF" cx="157.2" cy="119" r="7"/>
<path fill="#FFFFFF" d="M142.4,172.3c2.1-3.6,2.2-8.4,0.3-12.1c-0.1-0.2-0.3-0.5-0.5-0.6c-0.3-0.2-0.7-0.2-1.1-0.1
	c-9.6,1.4-19,1.2-28.4,3.5c1.7,12.4,18.1,21.5,27.8,11.8C141.3,174,141.9,173.2,142.4,172.3z"/>
<path fill="#838389" d="M163.5,259.6c2.1-0.4,4.5-1.4,5.8-3c0.5-0.7,0.8-1.7,0.3-2.4c-0.5-0.6-1.3-0.6-2-0.6
	c-4.9-0.3-8.9-4.1-11.3-8.4s-3.5-9.2-5.1-13.9c-0.6-1.9-1.4-3.8-2.8-5.2c-1.4-1.4-3.5-2.2-5.3-1.5c1.3,1.2,1.7,3.1,2,4.8
	c0.7,3.3,1.2,6.7,1.6,10c0.4,3.4,1.3,6.7,2.2,10c0.4,1.5,0.9,2.8,1.5,4.3c0.5,1.2,1,2.3,1.8,3.3s1.7,1.9,2.9,2.3
	c0.7,0.2,1.4,0.3,2.1,0.4c1.8,0.2,3.7,0.2,5.5,0C163,259.7,163.3,259.7,163.5,259.6z"/>
</svg>
